# xmcd
#
# Track frame offsets:
#	150
#	11797
#	24827
#	45036
#	58601
#	69682
#	74485
#	86291
#	108371
#	124160
#	135675
#	147651
#	165111
#	169062
#	182009
#	197437
#
# Disc length: 2856 seconds
#
# Revision: 0
# Processed by: cddbd v1.4PL0 Copyright (c) Steve Scherf et al.
# Submitted via: dBpowerAMP V4.0
#
DISCID=d10b2610
DTITLE=Yonaton Becker - Home Cookin'
DYEAR=2001
DGENRE=Blues
TTITLE0=Afraid
TTITLE1=Labirinth of Lies
TTITLE2=Anything For You
TTITLE3=Are You Ready For Love
TTITLE4=I'll Be Gone
TTITLE5=Trailer Trash
TTITLE6=Open Road
TTITLE7=No Expectations
TTITLE8=Morning Glory
TTITLE9=New Song
TTITLE10=747
TTITLE11=Buffalo Creck
TTITLE12=Ponderosa
TTITLE13=Real Good Feelin'
TTITLE14=Fools and Children
TTITLE15=The Agony of the Worm
EXTD=
EXTT0=
EXTT1=
EXTT2=
EXTT3=
EXTT4=
EXTT5=
EXTT6=
EXTT7=
EXTT8=
EXTT9=
EXTT10=
EXTT11=
EXTT12=
EXTT13=
EXTT14=
EXTT15=
PLAYORDER=
